<svg width="250" height="250" fill="none" xmlns="http://www.w3.org/2000/svg"><path fill="#fff" d="M0 0h250v250H0z"/><g filter="url(#a)"><path fill-rule="evenodd" clip-rule="evenodd" d="m29.619 147.682-2.78 4.752C16.038 166.89 17.832 205.213 24 215h161.316c1.735 0 7.758-3.027 17.977-15.135C216.066 184.729 226 160.134 226 144.526c0-15.608-2.838-40.676-29.803-64.799-26.965-24.122-63.391-30.27-94.614-19.865-19.15 6.383-33.963 23.552-42.39 36.759l46.057 3.22c9.917.694 17.394 9.295 16.701 19.212l-1.186 16.959c-.694 9.917-9.295 17.394-19.212 16.7l-71.934-5.03Zm55.622 22.198h20.7v6.3H91.766v7.515h12.285v6.3H91.766V203h-6.525v-33.12Zm37.018 0c2.79 0 5.145.465 7.065 1.395 1.92.9 3.375 2.19 4.365 3.87 1.02 1.65 1.53 3.615 1.53 5.895 0 1.35-.21 2.7-.63 4.05a10.03 10.03 0 0 1-1.98 3.69c-.695.857-1.569 1.589-2.621 2.195L137.694 203h-7.605l-6.995-10.53h-4.345V203h-6.525v-33.12h10.035Zm1.125 16.29c1.32 0 2.34-.27 3.06-.81.75-.57 1.275-1.23 1.575-1.98.3-.78.45-1.485.45-2.115 0-.36-.06-.81-.18-1.35-.09-.57-.3-1.14-.63-1.71-.33-.57-.84-1.05-1.53-1.44-.66-.39-1.56-.585-2.7-.585h-4.68v9.99h4.635Zm37.374-8.28c-1.26-.69-2.55-1.26-3.87-1.71-1.29-.45-2.505-.675-3.645-.675-1.41 0-2.52.285-3.33.855-.81.57-1.215 1.425-1.215 2.565 0 .78.3 1.485.9 2.115.63.6 1.425 1.14 2.385 1.62.99.48 2.01.915 3.06 1.305a20.57 20.57 0 0 1 3.735 1.845c1.2.72 2.19 1.725 2.97 3.015.78 1.26 1.17 2.94 1.17 5.04 0 1.68-.435 3.24-1.305 4.68-.87 1.44-2.145 2.61-3.825 3.51-1.68.87-3.75 1.305-6.21 1.305-1.89 0-3.825-.285-5.805-.855-1.95-.57-3.795-1.47-5.535-2.7l2.88-5.085c1.14.84 2.445 1.53 3.915 2.07 1.47.54 2.79.81 3.96.81.78 0 1.56-.105 2.34-.315.81-.24 1.47-.63 1.98-1.17.54-.54.81-1.29.81-2.25 0-.66-.225-1.26-.675-1.8-.42-.54-1.005-1.035-1.755-1.485a13.56 13.56 0 0 0-2.385-1.17c-1.02-.39-2.07-.84-3.15-1.35-1.08-.51-2.1-1.125-3.06-1.845a9.267 9.267 0 0 1-2.295-2.745c-.57-1.11-.855-2.46-.855-4.05 0-1.92.42-3.585 1.26-4.995.87-1.41 2.085-2.52 3.645-3.33 1.56-.84 3.36-1.305 5.4-1.395 2.67 0 4.83.315 6.48.945 1.68.63 3.18 1.38 4.5 2.25l-2.475 4.995Zm15.548-25.253L173.5 144l-2.806 8.637h-9.082l7.347 5.338-2.806 8.638 7.347-5.338 7.347 5.338-2.806-8.638 7.347-5.338h-9.082ZM172.5 94l2.806 8.637h9.082l-7.347 5.338 2.806 8.638-7.347-5.338-7.347 5.338 2.806-8.638-7.347-5.338h9.082L172.5 94Zm-22.194 18.637L147.5 104l-2.806 8.637h-9.082l7.347 5.338-2.806 8.638 7.347-5.338 7.347 5.338-2.806-8.638 7.347-5.338h-9.082ZM172.5 119l2.806 8.637h9.082l-7.347 5.338 2.806 8.638-7.347-5.338-7.347 5.338 2.806-8.638-7.347-5.338h9.082L172.5 119Zm27.806-6.363L197.5 104l-2.806 8.637h-9.082l7.347 5.338-2.806 8.638 7.347-5.338 7.347 5.338-2.806-8.638 7.347-5.338h-9.082ZM197.5 127l2.806 8.637h9.082l-7.347 5.338 2.806 8.638-7.347-5.338-7.347 5.338 2.806-8.638-7.347-5.338h9.082L197.5 127Zm-47.194 12.637L147.5 131l-2.806 8.637h-9.082l7.347 5.338-2.806 8.638 7.347-5.338 7.347 5.338-2.806-8.638 7.347-5.338h-9.082Z" fill="#000"/></g><defs><filter id="a" x="15.051" y="55" width="214.949" height="168" filterUnits="userSpaceOnUse" color-interpolation-filters="sRGB"><feFlood flood-opacity="0" result="BackgroundImageFix"/><feColorMatrix in="SourceAlpha" values="0 0 0 0 0 0 0 0 0 0 0 0 0 0 0 0 0 0 127 0" result="hardAlpha"/><feOffset dy="4"/><feGaussianBlur stdDeviation="2"/><feComposite in2="hardAlpha" operator="out"/><feColorMatrix values="0 0 0 0 0 0 0 0 0 0 0 0 0 0 0 0 0 0 0.25 0"/><feBlend in2="BackgroundImageFix" result="effect1_dropShadow_14_46"/><feBlend in="SourceGraphic" in2="effect1_dropShadow_14_46" result="shape"/></filter></defs></svg>